<mxfile host="app.diagrams.net" modified="2021-10-19T10:07:03.361Z" agent="5.0 (Windows NT 10.0; Win64; x64) AppleWebKit/537.36 (KHTML, like Gecko) Chrome/94.0.4606.81 Safari/537.36" etag="hskTrw-nyX7pBNUX73Qd" version="15.5.5" type="github">
  <diagram id="V1WDuDcznvzgJ_oFNSz7" name="Page-1">
    <mxGraphModel dx="1182" dy="2252" grid="1" gridSize="10" guides="1" tooltips="1" connect="1" arrows="1" fold="1" page="1" pageScale="1" pageWidth="850" pageHeight="1100" math="0" shadow="0">
      <root>
        <mxCell id="0" />
        <mxCell id="1" parent="0" />
        <mxCell id="-i7pg2BufP6CnxgPI3m_-13" value="" style="strokeWidth=1;shadow=0;dashed=0;align=center;html=1;shape=mxgraph.mockup.containers.rrect;rSize=0;strokeColor=#666666;" vertex="1" parent="1">
          <mxGeometry x="60" y="40" width="400" height="560" as="geometry" />
        </mxCell>
        <mxCell id="-i7pg2BufP6CnxgPI3m_-14" value="News List" style="strokeColor=inherit;fillColor=inherit;gradientColor=inherit;strokeWidth=1;shadow=0;dashed=0;align=center;html=1;shape=mxgraph.mockup.containers.rrect;rSize=0;fontSize=17;fontColor=#666666;fontStyle=1;resizeWidth=1;" vertex="1" parent="-i7pg2BufP6CnxgPI3m_-13">
          <mxGeometry width="400.00000000000006" height="26" relative="1" as="geometry" />
        </mxCell>
        <mxCell id="-i7pg2BufP6CnxgPI3m_-29" value="" style="group" vertex="1" connectable="0" parent="-i7pg2BufP6CnxgPI3m_-13">
          <mxGeometry x="9" y="40" width="355.6" height="83.64" as="geometry" />
        </mxCell>
        <mxCell id="-i7pg2BufP6CnxgPI3m_-8" value="" style="rounded=1;whiteSpace=wrap;html=1;align=left;" vertex="1" parent="-i7pg2BufP6CnxgPI3m_-29">
          <mxGeometry width="351.6044943820225" height="83.64" as="geometry" />
        </mxCell>
        <mxCell id="-i7pg2BufP6CnxgPI3m_-5" value="" style="whiteSpace=wrap;html=1;aspect=fixed;" vertex="1" parent="-i7pg2BufP6CnxgPI3m_-29">
          <mxGeometry x="15.600000000000001" y="11.120000000000001" width="61.41" height="61.41" as="geometry" />
        </mxCell>
        <mxCell id="-i7pg2BufP6CnxgPI3m_-6" value="&lt;b&gt;Some News Title&lt;/b&gt;" style="text;html=1;strokeColor=none;fillColor=none;align=left;verticalAlign=middle;whiteSpace=wrap;rounded=0;" vertex="1" parent="-i7pg2BufP6CnxgPI3m_-29">
          <mxGeometry x="85.60424195818469" y="11.116666666666667" width="195.00645161290325" height="27.880000000000003" as="geometry" />
        </mxCell>
        <mxCell id="-i7pg2BufP6CnxgPI3m_-7" value="Published on : 2021-10-19" style="text;html=1;strokeColor=none;fillColor=none;align=left;verticalAlign=middle;whiteSpace=wrap;rounded=0;" vertex="1" parent="-i7pg2BufP6CnxgPI3m_-29">
          <mxGeometry x="85.60424195818469" y="38.99666666666667" width="275.3032258064516" height="27.880000000000003" as="geometry" />
        </mxCell>
        <mxCell id="-i7pg2BufP6CnxgPI3m_-47" value="" style="group" vertex="1" connectable="0" parent="-i7pg2BufP6CnxgPI3m_-13">
          <mxGeometry x="9" y="140" width="355.6" height="83.64" as="geometry" />
        </mxCell>
        <mxCell id="-i7pg2BufP6CnxgPI3m_-48" value="" style="rounded=1;whiteSpace=wrap;html=1;align=left;" vertex="1" parent="-i7pg2BufP6CnxgPI3m_-47">
          <mxGeometry width="351.6044943820225" height="83.64" as="geometry" />
        </mxCell>
        <mxCell id="-i7pg2BufP6CnxgPI3m_-49" value="" style="whiteSpace=wrap;html=1;aspect=fixed;" vertex="1" parent="-i7pg2BufP6CnxgPI3m_-47">
          <mxGeometry x="15.600000000000001" y="11.120000000000001" width="61.41" height="61.41" as="geometry" />
        </mxCell>
        <mxCell id="-i7pg2BufP6CnxgPI3m_-50" value="&lt;b&gt;Some News Title&lt;/b&gt;" style="text;html=1;strokeColor=none;fillColor=none;align=left;verticalAlign=middle;whiteSpace=wrap;rounded=0;" vertex="1" parent="-i7pg2BufP6CnxgPI3m_-47">
          <mxGeometry x="85.60424195818469" y="11.116666666666667" width="195.00645161290325" height="27.880000000000003" as="geometry" />
        </mxCell>
        <mxCell id="-i7pg2BufP6CnxgPI3m_-51" value="Published on : 2021-10-19" style="text;html=1;strokeColor=none;fillColor=none;align=left;verticalAlign=middle;whiteSpace=wrap;rounded=0;" vertex="1" parent="-i7pg2BufP6CnxgPI3m_-47">
          <mxGeometry x="85.60424195818469" y="38.99666666666667" width="275.3032258064516" height="27.880000000000003" as="geometry" />
        </mxCell>
        <mxCell id="-i7pg2BufP6CnxgPI3m_-52" value="" style="group" vertex="1" connectable="0" parent="-i7pg2BufP6CnxgPI3m_-13">
          <mxGeometry x="6.349999999999994" y="238.17999999999995" width="355.6" height="83.64" as="geometry" />
        </mxCell>
        <mxCell id="-i7pg2BufP6CnxgPI3m_-53" value="" style="rounded=1;whiteSpace=wrap;html=1;align=left;" vertex="1" parent="-i7pg2BufP6CnxgPI3m_-52">
          <mxGeometry width="351.6044943820225" height="83.64" as="geometry" />
        </mxCell>
        <mxCell id="-i7pg2BufP6CnxgPI3m_-54" value="" style="whiteSpace=wrap;html=1;aspect=fixed;" vertex="1" parent="-i7pg2BufP6CnxgPI3m_-52">
          <mxGeometry x="15.600000000000001" y="11.120000000000001" width="61.41" height="61.41" as="geometry" />
        </mxCell>
        <mxCell id="-i7pg2BufP6CnxgPI3m_-55" value="&lt;b&gt;Some News Title&lt;/b&gt;" style="text;html=1;strokeColor=none;fillColor=none;align=left;verticalAlign=middle;whiteSpace=wrap;rounded=0;" vertex="1" parent="-i7pg2BufP6CnxgPI3m_-52">
          <mxGeometry x="85.60424195818469" y="11.116666666666667" width="195.00645161290325" height="27.880000000000003" as="geometry" />
        </mxCell>
        <mxCell id="-i7pg2BufP6CnxgPI3m_-56" value="Published on : 2021-10-19" style="text;html=1;strokeColor=none;fillColor=none;align=left;verticalAlign=middle;whiteSpace=wrap;rounded=0;" vertex="1" parent="-i7pg2BufP6CnxgPI3m_-52">
          <mxGeometry x="85.60424195818469" y="38.99666666666667" width="275.3032258064516" height="27.880000000000003" as="geometry" />
        </mxCell>
        <mxCell id="-i7pg2BufP6CnxgPI3m_-57" value="" style="group" vertex="1" connectable="0" parent="-i7pg2BufP6CnxgPI3m_-13">
          <mxGeometry x="4" y="340" width="355.6" height="83.64" as="geometry" />
        </mxCell>
        <mxCell id="-i7pg2BufP6CnxgPI3m_-58" value="" style="rounded=1;whiteSpace=wrap;html=1;align=left;" vertex="1" parent="-i7pg2BufP6CnxgPI3m_-57">
          <mxGeometry width="351.6044943820225" height="83.64" as="geometry" />
        </mxCell>
        <mxCell id="-i7pg2BufP6CnxgPI3m_-59" value="" style="whiteSpace=wrap;html=1;aspect=fixed;" vertex="1" parent="-i7pg2BufP6CnxgPI3m_-57">
          <mxGeometry x="15.600000000000001" y="11.120000000000001" width="61.41" height="61.41" as="geometry" />
        </mxCell>
        <mxCell id="-i7pg2BufP6CnxgPI3m_-60" value="&lt;b&gt;Some News Title&lt;/b&gt;" style="text;html=1;strokeColor=none;fillColor=none;align=left;verticalAlign=middle;whiteSpace=wrap;rounded=0;" vertex="1" parent="-i7pg2BufP6CnxgPI3m_-57">
          <mxGeometry x="85.60424195818469" y="11.116666666666667" width="195.00645161290325" height="27.880000000000003" as="geometry" />
        </mxCell>
        <mxCell id="-i7pg2BufP6CnxgPI3m_-61" value="Published on : 2021-10-19" style="text;html=1;strokeColor=none;fillColor=none;align=left;verticalAlign=middle;whiteSpace=wrap;rounded=0;" vertex="1" parent="-i7pg2BufP6CnxgPI3m_-57">
          <mxGeometry x="85.60424195818469" y="38.99666666666667" width="275.3032258064516" height="27.880000000000003" as="geometry" />
        </mxCell>
        <mxCell id="-i7pg2BufP6CnxgPI3m_-62" value="" style="group" vertex="1" connectable="0" parent="-i7pg2BufP6CnxgPI3m_-13">
          <mxGeometry x="9" y="450" width="355.6" height="83.64" as="geometry" />
        </mxCell>
        <mxCell id="-i7pg2BufP6CnxgPI3m_-63" value="" style="rounded=1;whiteSpace=wrap;html=1;align=left;" vertex="1" parent="-i7pg2BufP6CnxgPI3m_-62">
          <mxGeometry width="351.6044943820225" height="83.64" as="geometry" />
        </mxCell>
        <mxCell id="-i7pg2BufP6CnxgPI3m_-64" value="" style="whiteSpace=wrap;html=1;aspect=fixed;" vertex="1" parent="-i7pg2BufP6CnxgPI3m_-62">
          <mxGeometry x="15.600000000000001" y="11.120000000000001" width="61.41" height="61.41" as="geometry" />
        </mxCell>
        <mxCell id="-i7pg2BufP6CnxgPI3m_-65" value="&lt;b&gt;Some News Title&lt;/b&gt;" style="text;html=1;strokeColor=none;fillColor=none;align=left;verticalAlign=middle;whiteSpace=wrap;rounded=0;" vertex="1" parent="-i7pg2BufP6CnxgPI3m_-62">
          <mxGeometry x="85.60424195818469" y="11.116666666666667" width="195.00645161290325" height="27.880000000000003" as="geometry" />
        </mxCell>
        <mxCell id="-i7pg2BufP6CnxgPI3m_-66" value="Published on : 2021-10-19" style="text;html=1;strokeColor=none;fillColor=none;align=left;verticalAlign=middle;whiteSpace=wrap;rounded=0;" vertex="1" parent="-i7pg2BufP6CnxgPI3m_-62">
          <mxGeometry x="85.60424195818469" y="38.99666666666667" width="275.3032258064516" height="27.880000000000003" as="geometry" />
        </mxCell>
        <mxCell id="-i7pg2BufP6CnxgPI3m_-42" value="" style="group" vertex="1" connectable="0" parent="1">
          <mxGeometry x="60" y="660" width="355.6" height="83.64" as="geometry" />
        </mxCell>
        <mxCell id="-i7pg2BufP6CnxgPI3m_-43" value="" style="rounded=1;whiteSpace=wrap;html=1;align=left;" vertex="1" parent="-i7pg2BufP6CnxgPI3m_-42">
          <mxGeometry width="351.6044943820225" height="83.64" as="geometry" />
        </mxCell>
        <mxCell id="-i7pg2BufP6CnxgPI3m_-44" value="" style="whiteSpace=wrap;html=1;aspect=fixed;" vertex="1" parent="-i7pg2BufP6CnxgPI3m_-42">
          <mxGeometry x="15.600000000000001" y="11.120000000000001" width="61.41" height="61.41" as="geometry" />
        </mxCell>
        <mxCell id="-i7pg2BufP6CnxgPI3m_-45" value="&lt;b&gt;Some News Title&lt;/b&gt;" style="text;html=1;strokeColor=none;fillColor=none;align=left;verticalAlign=middle;whiteSpace=wrap;rounded=0;" vertex="1" parent="-i7pg2BufP6CnxgPI3m_-42">
          <mxGeometry x="85.60424195818469" y="11.116666666666667" width="195.00645161290325" height="27.880000000000003" as="geometry" />
        </mxCell>
        <mxCell id="-i7pg2BufP6CnxgPI3m_-46" value="Published on : 2021-10-19" style="text;html=1;strokeColor=none;fillColor=none;align=left;verticalAlign=middle;whiteSpace=wrap;rounded=0;" vertex="1" parent="-i7pg2BufP6CnxgPI3m_-42">
          <mxGeometry x="85.60424195818469" y="38.99666666666667" width="275.3032258064516" height="27.880000000000003" as="geometry" />
        </mxCell>
        <mxCell id="-i7pg2BufP6CnxgPI3m_-67" value="" style="strokeWidth=1;shadow=0;dashed=0;align=center;html=1;shape=mxgraph.mockup.containers.rrect;rSize=0;strokeColor=#666666;" vertex="1" parent="1">
          <mxGeometry x="620" y="860" width="470" height="690" as="geometry" />
        </mxCell>
        <mxCell id="-i7pg2BufP6CnxgPI3m_-68" value="News Details" style="strokeColor=inherit;fillColor=inherit;gradientColor=inherit;strokeWidth=1;shadow=0;dashed=0;align=center;html=1;shape=mxgraph.mockup.containers.rrect;rSize=0;fontSize=17;fontColor=#666666;fontStyle=1;resizeWidth=1;" vertex="1" parent="-i7pg2BufP6CnxgPI3m_-67">
          <mxGeometry width="470" height="26" relative="1" as="geometry" />
        </mxCell>
        <mxCell id="-i7pg2BufP6CnxgPI3m_-72" value="&lt;b&gt;&lt;font style=&quot;font-size: 18px&quot;&gt;Some News Title&lt;/font&gt;&lt;/b&gt;" style="text;html=1;strokeColor=none;fillColor=none;align=left;verticalAlign=middle;whiteSpace=wrap;rounded=0;" vertex="1" parent="-i7pg2BufP6CnxgPI3m_-67">
          <mxGeometry y="37.70270270270271" width="454.3333333333333" height="37.70270270270271" as="geometry" />
        </mxCell>
        <mxCell id="-i7pg2BufP6CnxgPI3m_-73" value="&lt;b&gt;published by&lt;/b&gt; : Aditya" style="text;html=1;strokeColor=none;fillColor=none;align=left;verticalAlign=middle;whiteSpace=wrap;rounded=0;fontSize=14;" vertex="1" parent="-i7pg2BufP6CnxgPI3m_-67">
          <mxGeometry y="630.0008138820639" width="282" height="26.260135135135133" as="geometry" />
        </mxCell>
        <mxCell id="-i7pg2BufP6CnxgPI3m_-74" value="&lt;div&gt;&lt;b&gt;&lt;font style=&quot;font-size: 14px&quot;&gt;short description&lt;/font&gt;&lt;/b&gt;&lt;/div&gt;" style="text;html=1;strokeColor=none;fillColor=none;align=left;verticalAlign=middle;whiteSpace=wrap;rounded=0;" vertex="1" parent="-i7pg2BufP6CnxgPI3m_-67">
          <mxGeometry y="75.40540540540542" width="454.3333333333333" height="37.70270270270271" as="geometry" />
        </mxCell>
        <mxCell id="-i7pg2BufP6CnxgPI3m_-76" value="Banner Image" style="rounded=0;whiteSpace=wrap;html=1;fontSize=18;align=center;" vertex="1" parent="-i7pg2BufP6CnxgPI3m_-67">
          <mxGeometry y="113.1081081081081" width="470" height="100.54054054054055" as="geometry" />
        </mxCell>
        <mxCell id="-i7pg2BufP6CnxgPI3m_-77" value="Lorem ipsum dolor sit amet, consectetur adipisicing elit, sed do eiusmod tempor incididunt ut labore et dolore magna aliqua. Ut enim ad minim veniam, quis nostrud exercitation ullamco laboris nisi ut aliquip ex ea commodo consequat. Duis aute irure dolor in reprehenderit in voluptate velit esse cillum dolore eu fugiat nulla pariatur. Excepteur sint occaecat cupidatat non proident, sunt in culpa qui officia deserunt mollit anim id est laborum.&#xa;Sed ut perspiciatis unde omnis iste natus error sit voluptatem accusantium doloremque laudantium, totam rem aperiam, eaque ipsa quae ab illo inventore veritatis et quasi architecto beatae vitae dicta sunt explicabo. Nemo enim ipsam voluptatem quia voluptas sit aspernatur aut odit aut fugit, sed quia consequuntur magni dolores eos qui ratione voluptatem sequi nesciunt. Neque porro quisquam est, qui dolorem ipsum quia dolor sit amet, consectetur, adipisci velit, sed quia non numquam eius modi tempora incidunt ut labore et dolore magnam aliquam quaerat voluptatem. Ut enim ad minima veniam, quis nostrum exercitationem ullam corporis suscipit laboriosam, nisi ut aliquid ex ea commodi consequatur? Quis autem vel eum iure reprehenderit qui in ea voluptate velit esse quam nihil molestiae consequatur, vel illum qui dolorem eum fugiat quo voluptas nulla pariatur?" style="text;spacingTop=-5;whiteSpace=wrap;html=1;align=left;fontSize=12;fontFamily=Helvetica;fillColor=none;strokeColor=none;" vertex="1" parent="-i7pg2BufP6CnxgPI3m_-67">
          <mxGeometry y="219.99909090909088" width="470" height="296.01" as="geometry" />
        </mxCell>
        <mxCell id="-i7pg2BufP6CnxgPI3m_-132" value="Back" style="labelPosition=center;verticalLabelPosition=middle;align=center;html=1;shape=mxgraph.basic.shaded_button;dx=10;fillColor=#E6E6E6;strokeColor=none;fontSize=18;" vertex="1" parent="-i7pg2BufP6CnxgPI3m_-67">
          <mxGeometry x="344.66666666666663" y="37.7" width="109.66666666666666" height="32.3" as="geometry" />
        </mxCell>
        <mxCell id="-i7pg2BufP6CnxgPI3m_-134" value="&lt;b&gt;published on&amp;nbsp;&lt;/b&gt;: 2021-10-10" style="text;html=1;strokeColor=none;fillColor=none;align=left;verticalAlign=middle;whiteSpace=wrap;rounded=0;fontSize=14;" vertex="1" parent="-i7pg2BufP6CnxgPI3m_-67">
          <mxGeometry y="656.260813882064" width="282" height="26.260135135135133" as="geometry" />
        </mxCell>
        <mxCell id="-i7pg2BufP6CnxgPI3m_-105" value="" style="strokeWidth=1;shadow=0;dashed=0;align=center;html=1;shape=mxgraph.mockup.containers.rrect;rSize=0;strokeColor=#666666;" vertex="1" parent="1">
          <mxGeometry x="100" y="860" width="490" height="560" as="geometry" />
        </mxCell>
        <mxCell id="-i7pg2BufP6CnxgPI3m_-106" value="News List" style="strokeColor=inherit;fillColor=inherit;gradientColor=inherit;strokeWidth=1;shadow=0;dashed=0;align=center;html=1;shape=mxgraph.mockup.containers.rrect;rSize=0;fontSize=17;fontColor=#666666;fontStyle=1;resizeWidth=1;" vertex="1" parent="-i7pg2BufP6CnxgPI3m_-105">
          <mxGeometry width="490.0000000000001" height="26" relative="1" as="geometry" />
        </mxCell>
        <mxCell id="-i7pg2BufP6CnxgPI3m_-133" value="Enter search keyword..." style="text;html=1;strokeColor=none;fillColor=none;align=left;verticalAlign=middle;whiteSpace=wrap;rounded=0;fontSize=18;" vertex="1" parent="-i7pg2BufP6CnxgPI3m_-105">
          <mxGeometry x="4.9" y="30" width="485.1" height="30" as="geometry" />
        </mxCell>
        <mxCell id="-i7pg2BufP6CnxgPI3m_-112" value="" style="group" vertex="1" connectable="0" parent="-i7pg2BufP6CnxgPI3m_-105">
          <mxGeometry x="4.9" y="70" width="435.61000000000007" height="83.64" as="geometry" />
        </mxCell>
        <mxCell id="-i7pg2BufP6CnxgPI3m_-113" value="" style="rounded=1;whiteSpace=wrap;html=1;align=left;" vertex="1" parent="-i7pg2BufP6CnxgPI3m_-112">
          <mxGeometry width="430.7155056179776" height="83.64" as="geometry" />
        </mxCell>
        <mxCell id="-i7pg2BufP6CnxgPI3m_-114" value="" style="whiteSpace=wrap;html=1;aspect=fixed;" vertex="1" parent="-i7pg2BufP6CnxgPI3m_-112">
          <mxGeometry x="19.110000000000003" y="11.120000000000001" width="61.41" height="61.41" as="geometry" />
        </mxCell>
        <mxCell id="-i7pg2BufP6CnxgPI3m_-115" value="&lt;b&gt;Some News Title&lt;/b&gt;" style="text;html=1;strokeColor=none;fillColor=none;align=left;verticalAlign=middle;whiteSpace=wrap;rounded=0;" vertex="1" parent="-i7pg2BufP6CnxgPI3m_-112">
          <mxGeometry x="104.86519639877625" y="11.116666666666667" width="238.8829032258065" height="27.880000000000003" as="geometry" />
        </mxCell>
        <mxCell id="-i7pg2BufP6CnxgPI3m_-116" value="Published on : 2021-10-19" style="text;html=1;strokeColor=none;fillColor=none;align=left;verticalAlign=middle;whiteSpace=wrap;rounded=0;" vertex="1" parent="-i7pg2BufP6CnxgPI3m_-112">
          <mxGeometry x="104.86519639877625" y="38.99666666666667" width="337.2464516129033" height="27.880000000000003" as="geometry" />
        </mxCell>
        <mxCell id="-i7pg2BufP6CnxgPI3m_-117" value="" style="group" vertex="1" connectable="0" parent="-i7pg2BufP6CnxgPI3m_-105">
          <mxGeometry x="11.024999999999995" y="169.99999999999994" width="435.61000000000007" height="83.64" as="geometry" />
        </mxCell>
        <mxCell id="-i7pg2BufP6CnxgPI3m_-118" value="" style="rounded=1;whiteSpace=wrap;html=1;align=left;" vertex="1" parent="-i7pg2BufP6CnxgPI3m_-117">
          <mxGeometry width="430.7155056179776" height="83.64" as="geometry" />
        </mxCell>
        <mxCell id="-i7pg2BufP6CnxgPI3m_-119" value="" style="whiteSpace=wrap;html=1;aspect=fixed;" vertex="1" parent="-i7pg2BufP6CnxgPI3m_-117">
          <mxGeometry x="19.110000000000003" y="11.120000000000001" width="61.41" height="61.41" as="geometry" />
        </mxCell>
        <mxCell id="-i7pg2BufP6CnxgPI3m_-120" value="&lt;b&gt;Some News Title&lt;/b&gt;" style="text;html=1;strokeColor=none;fillColor=none;align=left;verticalAlign=middle;whiteSpace=wrap;rounded=0;" vertex="1" parent="-i7pg2BufP6CnxgPI3m_-117">
          <mxGeometry x="104.86519639877625" y="11.116666666666667" width="238.8829032258065" height="27.880000000000003" as="geometry" />
        </mxCell>
        <mxCell id="-i7pg2BufP6CnxgPI3m_-121" value="Published on : 2021-10-19" style="text;html=1;strokeColor=none;fillColor=none;align=left;verticalAlign=middle;whiteSpace=wrap;rounded=0;" vertex="1" parent="-i7pg2BufP6CnxgPI3m_-117">
          <mxGeometry x="104.86519639877625" y="38.99666666666667" width="337.2464516129033" height="27.880000000000003" as="geometry" />
        </mxCell>
        <mxCell id="-i7pg2BufP6CnxgPI3m_-122" value="" style="group" vertex="1" connectable="0" parent="-i7pg2BufP6CnxgPI3m_-105">
          <mxGeometry x="11.025" y="270" width="435.61000000000007" height="83.64" as="geometry" />
        </mxCell>
        <mxCell id="-i7pg2BufP6CnxgPI3m_-123" value="" style="rounded=1;whiteSpace=wrap;html=1;align=left;" vertex="1" parent="-i7pg2BufP6CnxgPI3m_-122">
          <mxGeometry width="430.7155056179776" height="83.64" as="geometry" />
        </mxCell>
        <mxCell id="-i7pg2BufP6CnxgPI3m_-124" value="" style="whiteSpace=wrap;html=1;aspect=fixed;" vertex="1" parent="-i7pg2BufP6CnxgPI3m_-122">
          <mxGeometry x="19.110000000000003" y="11.120000000000001" width="61.41" height="61.41" as="geometry" />
        </mxCell>
        <mxCell id="-i7pg2BufP6CnxgPI3m_-125" value="&lt;b&gt;Some News Title&lt;/b&gt;" style="text;html=1;strokeColor=none;fillColor=none;align=left;verticalAlign=middle;whiteSpace=wrap;rounded=0;" vertex="1" parent="-i7pg2BufP6CnxgPI3m_-122">
          <mxGeometry x="104.86519639877625" y="11.116666666666667" width="238.8829032258065" height="27.880000000000003" as="geometry" />
        </mxCell>
        <mxCell id="-i7pg2BufP6CnxgPI3m_-126" value="Published on : 2021-10-19" style="text;html=1;strokeColor=none;fillColor=none;align=left;verticalAlign=middle;whiteSpace=wrap;rounded=0;" vertex="1" parent="-i7pg2BufP6CnxgPI3m_-122">
          <mxGeometry x="104.86519639877625" y="38.99666666666667" width="337.2464516129033" height="27.880000000000003" as="geometry" />
        </mxCell>
        <mxCell id="-i7pg2BufP6CnxgPI3m_-127" value="" style="group" vertex="1" connectable="0" parent="-i7pg2BufP6CnxgPI3m_-105">
          <mxGeometry x="11.025" y="380" width="435.61000000000007" height="83.64" as="geometry" />
        </mxCell>
        <mxCell id="-i7pg2BufP6CnxgPI3m_-128" value="" style="rounded=1;whiteSpace=wrap;html=1;align=left;" vertex="1" parent="-i7pg2BufP6CnxgPI3m_-127">
          <mxGeometry width="430.7155056179776" height="83.64" as="geometry" />
        </mxCell>
        <mxCell id="-i7pg2BufP6CnxgPI3m_-129" value="" style="whiteSpace=wrap;html=1;aspect=fixed;" vertex="1" parent="-i7pg2BufP6CnxgPI3m_-127">
          <mxGeometry x="19.110000000000003" y="11.120000000000001" width="61.41" height="61.41" as="geometry" />
        </mxCell>
        <mxCell id="-i7pg2BufP6CnxgPI3m_-130" value="&lt;b&gt;Some News Title&lt;/b&gt;" style="text;html=1;strokeColor=none;fillColor=none;align=left;verticalAlign=middle;whiteSpace=wrap;rounded=0;" vertex="1" parent="-i7pg2BufP6CnxgPI3m_-127">
          <mxGeometry x="104.86519639877625" y="11.116666666666667" width="238.8829032258065" height="27.880000000000003" as="geometry" />
        </mxCell>
        <mxCell id="-i7pg2BufP6CnxgPI3m_-131" value="Published on : 2021-10-19" style="text;html=1;strokeColor=none;fillColor=none;align=left;verticalAlign=middle;whiteSpace=wrap;rounded=0;" vertex="1" parent="-i7pg2BufP6CnxgPI3m_-127">
          <mxGeometry x="104.86519639877625" y="38.99666666666667" width="337.2464516129033" height="27.880000000000003" as="geometry" />
        </mxCell>
      </root>
    </mxGraphModel>
  </diagram>
</mxfile>
